<svg xmlns="http://www.w3.org/2000/svg" viewBox="0 0 495.95 170.85"><defs><style>.cls-1{fill:#111827;fill-rule:evenodd;}</style></defs><g id="Camada_2" data-name="Camada 2"><g id="Layer_1" data-name="Layer 1"><path class="cls-1" d="M54.62,100.24c-13.78,0-23.55-5.52-23.55-13.53H0C0,114,24.81,129.3,53.87,129.3c32.32,0,54.12-13.53,53.87-40.34,0-18-11.78-27.81-25.06-31.82-6.76-2.25-15-4-24.8-5.76-16.79-2.76-24.05-5-24.05-11,0-6.76,8-11.52,18.79-11.52,11,0,20.54,5.26,20.54,12.28h31.07c0-25.81-21-41.1-51.11-41.1C24.05,0,1.25,16.05,1.25,37.85c0,18.79,11,28.31,24.06,32.57a216.38,216.38,0,0,0,24.55,5.51c17.79,3,25.31,5,25.31,12.28C75.17,95.23,67.65,100.24,54.62,100.24Z"/><path class="cls-1" d="M239.07,2.91H203.7L176.51,88.08H176L147.88,2.91H111.55L155.1,119.6a20.55,20.55,0,0,1,1.44,7.7,17,17,0,0,1-3.25,10.1q-3.24,4.57-10,5.3a71.14,71.14,0,0,1-10.11-.25l-9.86-1v28.15c3.52.32,7,.61,10.46.85s6.94.36,10.47.36q17.55,0,27.43-6.5t15.4-21.65Z"/><path class="cls-1" d="M277.71,61.4c0-20.29,6.77-29.57,22.55-29.57s22.55,9.28,22.55,29.57v65.9h32.57V61.4C355.38,20.56,333.59,0,300.26,0S245.14,20.56,245.14,61.4v65.9h32.57Z"/><path class="cls-1" d="M433.81,129.3a62.89,62.89,0,0,0,38.84-12.78A63.42,63.42,0,0,0,495.7,83.7H460.37a31,31,0,0,1-26.31,13.78c-9.27,0-16.79-3-23.05-9.27s-9.27-14.28-9.27-23.55,3-17,9.27-23.3a32.45,32.45,0,0,1,50.36,5.51H496c-3.76-13.78-11.53-24.81-23.05-33.58A62,62,0,0,0,433.81,0C399-.74,368.42,29.83,369.17,64.66,368.42,99.49,399,130.05,433.81,129.3Z"/></g></g></svg>